<?xml version="1.0" standalone="no"?>
<!DOCTYPE svg PUBLIC "-//W3C//DTD SVG 20010904//EN"
 "http://www.w3.org/TR/2001/REC-SVG-20010904/DTD/svg10.dtd">
<svg version="1.0" xmlns="http://www.w3.org/2000/svg"
 width="300.000000pt" height="99.000000pt" viewBox="0 0 300.000000 99.000000"
 preserveAspectRatio="xMidYMid meet">
<metadata>
Created by potrace 1.10, written by Peter Selinger 2001-2011
</metadata>
<g transform="translate(0.000000,99.000000) scale(0.100000,-0.100000)"
fill="#000000" stroke="none">
<path d="M2180 717 c0 -19 3 -68 6 -110 6 -71 9 -77 29 -77 20 0 23 6 28 68 4
37 7 86 7 110 0 41 0 42 -35 42 -33 0 -35 -2 -35 -33z"/>
<path d="M297 583 l2 -158 37 -3 36 -3 -4 65 -4 66 58 0 59 0 -7 -66 -7 -65
39 3 c21 2 38 6 37 11 -2 4 -3 33 -3 65 -1 56 -1 57 -15 27 -11 -25 -14 -26
-14 -9 -1 12 -10 31 -21 44 l-20 23 20 22 c11 12 20 32 21 46 0 18 4 15 14
-16 l13 -40 1 57 c1 31 4 63 7 72 5 13 -2 16 -36 16 l-41 0 6 -65 7 -65 -59 0
-59 0 4 65 4 65 -38 0 -39 0 2 -157z m61 16 c10 -16 10 -24 1 -35 -19 -23 -29
-16 -29 21 0 40 9 44 28 14z"/>
<path d="M623 720 c-37 -22 -59 -53 -68 -95 -5 -24 -4 -27 5 -12 18 28 26 20
29 -27 2 -48 -11 -67 -29 -39 -9 15 -10 13 -5 -12 30 -149 262 -152 300 -5 l6
25 -23 -27 -23 -27 0 74 0 74 24 -22 23 -22 -7 25 c-20 70 -74 110 -150 110
-32 0 -62 -7 -82 -20z m136 -66 c26 -22 31 -33 31 -69 0 -61 -33 -99 -85 -99
-81 0 -116 104 -56 165 36 36 70 37 110 3z"/>
<path d="M864 718 c3 -13 6 -41 6 -63 1 -36 2 -38 14 -22 12 16 14 16 20 1 8
-21 6 -84 -3 -109 -8 -19 -9 -19 -17 5 -7 21 -9 16 -15 -35 -3 -33 -4 -64 -2
-68 7 -12 140 1 172 17 15 8 36 31 45 50 21 45 20 53 -4 31 -12 -11 -20 -13
-21 -7 0 7 0 35 0 62 0 28 0 55 0 62 1 6 10 3 22 -8 22 -19 22 -19 15 6 -21
71 -69 99 -175 99 -61 1 -63 0 -57 -21z m125 -53 c34 -17 41 -33 41 -89 0 -48
-27 -82 -70 -88 l-25 -3 -3 98 c-3 107 0 112 57 82z"/>
<path d="M1174 721 c-37 -23 -64 -58 -64 -84 0 -14 4 -16 18 -8 15 8 17 4 14
-46 -3 -42 -7 -53 -18 -49 -20 8 -17 -21 6 -54 71 -100 245 -68 275 50 6 23 5
24 -8 7 -13 -16 -15 -16 -21 -1 -3 8 -6 36 -6 61 l0 46 21 -19 c22 -19 22 -19
14 6 -21 71 -74 110 -150 110 -32 0 -62 -7 -81 -19z m119 -53 c34 -18 46 -40
47 -85 0 -58 -34 -97 -85 -97 -81 0 -116 104 -56 165 31 31 59 36 94 17z"/>
<path d="M1413 719 c4 -13 7 -42 7 -64 0 -26 3 -35 9 -27 13 22 23 15 37 -23
10 -30 10 -43 -1 -68 -8 -18 -14 -26 -15 -19 0 7 -4 10 -10 7 -5 -3 -11 0 -11
7 -1 7 -5 -12 -10 -42 -9 -63 -3 -73 37 -68 29 3 29 4 26 61 l-4 57 35 0 c50
0 83 15 103 45 15 24 12 52 -4 30 -18 -25 -32 -14 -32 25 0 41 14 52 38 28 23
-23 13 10 -11 38 -22 25 -31 28 -112 32 l-88 5 6 -24z m135 -51 c28 -28 8 -63
-38 -70 -23 -3 -25 1 -28 40 -3 40 -2 42 25 42 16 0 34 -5 41 -12z"/>
<path d="M1630 726 c0 -29 13 -46 34 -46 13 0 17 -3 9 -8 -8 -5 -5 -20 12 -54
16 -32 20 -49 13 -56 -16 -16 -48 4 -49 31 -2 52 -17 -30 -18 -100 l-1 -73 35
0 35 0 0 65 0 65 55 0 55 0 0 -65 0 -65 35 0 35 0 0 160 0 160 -35 0 -35 0 0
-65 0 -65 -55 0 -55 0 0 65 0 65 -35 0 c-24 0 -35 -5 -35 -14z m230 -144 c0
-50 -8 -57 -31 -28 -23 29 -24 46 -3 46 8 0 12 5 9 10 -3 6 1 10 9 10 12 0 16
-10 16 -38z"/>
<path d="M1900 579 l0 -160 33 3 c17 2 31 6 30 11 -2 4 -3 75 -3 157 l0 150
-30 0 -30 0 0 -161z m37 -32 c-2 -23 -3 -1 -3 48 0 50 1 68 3 42 2 -26 2 -67
0 -90z"/>
<path d="M1980 581 l0 -158 90 0 90 0 0 35 0 34 -55 -4 -55 -5 0 129 0 128
-35 0 -35 0 0 -159z"/>
<path d="M2314 589 c-49 -125 -60 -147 -64 -123 -4 22 -11 30 -32 32 -33 4
-54 -27 -38 -58 9 -16 20 -19 77 -17 67 2 67 2 77 35 9 32 9 32 72 32 l62 0
12 -35 c11 -32 15 -35 50 -35 l38 0 -63 158 -63 157 -34 3 -35 3 -59 -152z
m103 73 c-34 -4 -48 5 -27 18 8 5 22 4 34 -3 20 -11 20 -12 -7 -15z m14 -67
l17 -45 -40 0 c-34 0 -39 3 -33 18 4 9 12 32 17 50 11 40 16 36 39 -23z m-65
-74 c-10 -15 -46 -14 -46 2 0 7 5 18 12 25 10 10 15 9 26 -2 8 -8 11 -19 8
-25z m119 19 c3 -5 8 -19 10 -30 4 -19 3 -19 -21 -4 -25 17 -29 26 -17 37 9
10 21 9 28 -3z"/>
<path d="M2620 480 c-15 -28 4 -60 34 -60 32 0 50 24 42 55 -5 20 -13 25 -36
25 -19 0 -33 -7 -40 -20z"/>
<path d="M890 300 c0 -49 3 -69 11 -64 6 3 9 17 6 30 -4 21 0 24 24 24 26 0
29 -4 29 -31 0 -17 4 -28 10 -24 6 3 10 35 10 71 0 36 -4 64 -10 64 -5 0 -10
-13 -10 -30 0 -27 -3 -30 -30 -30 -27 0 -30 3 -24 24 3 13 1 27 -5 30 -8 5
-11 -16 -11 -64z"/>
<path d="M1060 350 c-61 -61 27 -154 89 -94 23 21 18 74 -8 96 -30 23 -56 23
-81 -2z m74 -19 c19 -21 15 -51 -10 -72 -24 -20 -64 4 -64 39 0 51 41 69 74
33z"/>
<path d="M1230 301 l0 -71 40 0 c22 0 40 5 40 10 0 6 -13 10 -30 10 -30 0 -30
1 -30 54 0 30 -4 58 -10 61 -6 4 -10 -20 -10 -64z"/>
<path d="M1369 368 c-6 -14 -3 -131 3 -134 4 -3 8 27 8 65 0 39 -2 71 -5 71
-3 0 -5 -1 -6 -2z"/>
<path d="M1455 358 c-4 -9 -5 -40 -3 -69 3 -46 6 -54 24 -57 31 -4 74 34 74
67 0 37 -19 60 -57 67 -24 5 -34 2 -38 -8z m63 -20 c19 -19 15 -66 -7 -78 -34
-18 -41 -12 -41 40 0 41 3 50 18 50 10 0 23 -5 30 -12z"/>
<path d="M1620 304 c-12 -36 -19 -68 -16 -72 4 -3 9 4 13 16 7 29 48 30 63 1
7 -11 14 -18 17 -15 7 7 -38 136 -48 136 -4 0 -17 -30 -29 -66z m50 -16 c0 -4
-9 -8 -21 -8 -15 0 -19 4 -15 16 3 9 6 21 6 27 1 13 30 -22 30 -35z"/>
<path d="M1737 364 c-3 -4 5 -21 19 -40 15 -19 24 -43 23 -56 -2 -13 1 -24 6
-25 6 -1 9 9 7 23 -2 15 6 38 22 59 14 19 22 36 17 39 -5 3 -17 -6 -26 -21
l-18 -27 -22 27 c-11 15 -24 25 -28 21z"/>
<path d="M1892 358 c-18 -18 -15 -48 6 -54 56 -18 64 -24 51 -40 -12 -15 -24
-15 -61 1 -10 4 -18 3 -18 -3 0 -5 13 -15 29 -22 37 -15 71 1 71 34 0 18 -9
27 -41 39 -49 19 -44 42 8 34 29 -5 33 -4 23 8 -15 18 -52 19 -68 3z"/>
</g>
</svg>
